<svg xmlns="http://www.w3.org/2000/svg" viewBox="0 0 64 64" fill="none" stroke="currentColor" stroke-width="2.5" stroke-linecap="round" stroke-linejoin="round">
  <!-- Wings: Long Capsule Shape -->
  <path d="M22 25 L12 29 C8 31 6 57 18 63 C24 65 26 43 26 43" />
  <path d="M42 25 L52 29 C56 31 58 57 46 63 C40 65 38 43 38 43" />

  <!-- Collar: The 'V' Neck -->
  <path d="M24 22 L32 28 L40 22" stroke-linecap="butt" />

  <!-- Tie Body: Cicada Thorax/Abdomen -->
  <path d="M27 28 L37 28 L32 54 Z" fill="currentColor" stroke="none" />
  <!-- Outline for Tie if needed for separation/style, but solid fill is iconic -->
  <!-- Re-adding stroke for definition against transparent bg if color matches -->
  <path d="M27 28 L37 28 L32 54 Z" fill="none" />

  <!-- Head: Rounded Rectangle -->
  <rect x="22" y="8" width="20" height="14" rx="7" fill="white" stroke="currentColor" />
  
  <!-- Eyes: Large Circles -->
  <circle cx="27" cy="15" r="4.5" fill="white" stroke="currentColor" />
  <circle cx="37" cy="15" r="4.5" fill="white" stroke="currentColor" />
  
  <!-- Pupils: Solid dots -->
  <circle cx="27" cy="15" r="2" fill="currentColor" stroke="none" />
  <circle cx="37" cy="15" r="2" fill="currentColor" stroke="none" />
</svg>
